<svg width="700" height="252" viewBox="0 0 700 252" fill="none" xmlns="http://www.w3.org/2000/svg">
<g filter="url(#filter0_d_3606_7038)">
<path fill-rule="evenodd" clip-rule="evenodd" d="M73.248 66.3617C71.0061 71.6833 65.8903 74.2036 58.6029 74.2036C45.0087 74.2036 37.4411 65.5214 37.4411 50.0474C37.4411 34.9935 45.6397 25.7506 58.9536 25.7506C65.8205 25.7506 70.0245 28.2016 72.1267 32.6825L74.2994 26.7309H82.2171V44.5159H70.8654C69.8849 38.354 67.222 35.133 61.9665 35.133C56.0104 35.133 52.8567 39.3343 52.8567 48.7167V51.0271C52.8567 61.3904 55.3091 65.3111 61.5461 65.3111C65.9606 65.3111 68.6235 62.7205 68.6235 58.3094V56.7689H60.7052V49.6272H82.2171V73.2233H76.7517L73.248 66.3617Z" fill="white"/>
<path fill-rule="evenodd" clip-rule="evenodd" d="M109.758 56.699V55.4386C109.758 47.8064 108.146 45.3559 104.222 45.3559C100.368 45.3559 98.6864 47.8064 98.6864 55.4386V56.699C98.6864 64.3311 100.298 66.7118 104.222 66.7118C108.146 66.7118 109.758 64.2608 109.758 56.699ZM84.9521 56.069C84.9521 45.2159 92.7303 37.9336 104.432 37.9336C115.854 37.9336 123.492 45.1456 123.492 56.069C123.492 66.9216 115.784 74.2039 104.082 74.2039C92.5203 74.2039 84.9521 66.9919 84.9521 56.069Z" fill="white"/>
<path fill-rule="evenodd" clip-rule="evenodd" d="M140.451 45.1458C141.852 40.1047 144.936 37.9338 149.42 37.9338C154.956 37.9338 158.32 42.0648 158.32 48.4371C158.32 53.968 155.236 57.3291 150.541 57.3291C147.318 57.3291 144.655 55.0889 144.655 52.0079C144.655 49.837 145.636 48.0867 147.388 46.896C146.897 46.6165 146.267 46.4759 145.636 46.4759C142.062 46.4759 140.661 49.6272 140.451 55.7886V63.9111C140.451 65.8014 140.941 66.0815 141.852 66.0815H143.954V73.2232H123.563V66.0815H125.385C126.296 66.0815 126.786 65.8014 126.786 63.9111V48.5766C126.786 46.6165 126.507 46.0558 125.385 46.0558H123.283V38.9141H131.762C135.476 38.9141 138.629 38.494 140.451 38.0738V45.1458Z" fill="white"/>
<path fill-rule="evenodd" clip-rule="evenodd" d="M184.808 56.699V55.4386C184.808 48.7868 182.706 46.1265 179.343 46.1265C175.909 46.1265 173.877 48.7868 173.877 55.4386V56.699C173.877 63.3508 175.909 66.0116 179.343 66.0116C182.706 66.0116 184.808 63.4205 184.808 56.699ZM159.582 56.069C159.582 45.1456 165.678 37.9336 174.507 37.9336C179.903 37.9336 183.057 39.8245 184.808 43.3953V36.3937C184.808 34.4331 184.458 33.8729 183.407 33.8729H181.305V26.7306H189.783C193.568 26.7306 196.721 26.3105 198.473 25.8904V63.911C198.473 65.8013 198.963 66.0814 199.874 66.0814H201.416V73.2236H186.28C186.28 72.9435 186 70.1426 185.719 67.5521C184.108 71.6831 180.674 74.2039 174.578 74.2039C165.468 74.2039 159.582 66.9919 159.582 56.069Z" fill="white"/>
<path fill-rule="evenodd" clip-rule="evenodd" d="M226.363 56.699V55.4386C226.363 47.8064 224.752 45.3559 220.827 45.3559C216.973 45.3559 215.292 47.8064 215.292 55.4386V56.699C215.292 64.3311 216.903 66.7118 220.827 66.7118C224.752 66.7118 226.363 64.2608 226.363 56.699ZM201.557 56.069C201.557 45.2159 209.335 37.9336 221.037 37.9336C232.459 37.9336 240.097 45.1456 240.097 56.069C240.097 66.9216 232.39 74.2039 220.687 74.2039C209.125 74.2039 201.557 66.9919 201.557 56.069Z" fill="white"/>
<path fill-rule="evenodd" clip-rule="evenodd" d="M256.636 43.9556C258.738 39.8943 262.592 37.9337 267.917 37.9337C275.345 37.9337 279.199 42.2751 279.199 51.6575V63.9111C279.199 65.8014 279.689 66.0815 280.6 66.0815H282.422V73.2232H262.662V66.0815H264.133C265.044 66.0815 265.535 65.8014 265.535 63.9111V51.8678C265.535 47.8763 264.414 46.4061 261.611 46.4061C258.458 46.4061 256.846 48.5765 256.846 53.9685V63.9111C256.846 65.8014 257.336 66.0815 258.248 66.0815H259.719V73.2232H239.958V66.0815H241.78C242.691 66.0815 243.182 65.8014 243.182 63.9111V48.5765C243.182 46.6165 242.831 46.0557 241.78 46.0557H239.958V38.914H248.017C251.73 38.914 254.884 38.4939 256.636 38.0743V43.9556Z" fill="white"/>
<path fill-rule="evenodd" clip-rule="evenodd" d="M298.12 66.0815H300.572C301.834 66.0815 302.184 65.5916 302.184 63.5607V36.3235C302.184 34.3629 301.834 33.873 300.572 33.873H298.12V26.7307H321.104V33.873H318.651C317.39 33.873 316.969 34.3629 316.969 36.3235V63.5607C316.969 65.5916 317.39 66.0815 318.651 66.0815H321.104V73.2232H298.12V66.0815Z" fill="white"/>
<path fill-rule="evenodd" clip-rule="evenodd" d="M339.534 43.9556C341.636 39.8943 345.49 37.9337 350.816 37.9337C358.243 37.9337 362.098 42.2751 362.098 51.6575V63.9111C362.098 65.8014 362.588 66.0815 363.498 66.0815H365.32V73.2232H345.56V66.0815H347.031C347.943 66.0815 348.433 65.8014 348.433 63.9111V51.8678C348.433 47.8763 347.312 46.4061 344.509 46.4061C341.356 46.4061 339.744 48.5765 339.744 53.9685V63.9111C339.744 65.8014 340.234 66.0815 341.146 66.0815H342.617V73.2232H322.857V66.0815H324.679C325.589 66.0815 326.08 65.8014 326.08 63.9111V48.5765C326.08 46.6165 325.73 46.0557 324.679 46.0557H322.857V38.914H330.915C334.629 38.914 337.782 38.4939 339.534 38.0743V43.9556Z" fill="white"/>
<path fill-rule="evenodd" clip-rule="evenodd" d="M366.582 62.6505H375.482V67.3417C376.814 67.692 378.355 67.8321 380.177 67.8321C382.979 67.8321 384.731 66.8518 384.731 64.7511C384.731 62.3704 382.138 61.8102 377.795 60.9002C372.398 59.6398 366.092 57.6094 366.092 50.047C366.092 42.5555 371.768 37.9341 381.999 37.9341C387.885 37.9341 392.86 39.4042 395.522 40.6646V49.2068H387.044V44.9357C386.063 44.5859 384.311 44.3052 382.839 44.3052C380.107 44.3052 378.495 45.4261 378.495 47.2462C378.495 49.6972 381.227 49.9773 385.222 50.8873C390.547 52.1477 397.134 54.1786 397.134 61.9502C397.134 69.6527 391.528 74.2038 381.088 74.2038C374.781 74.2038 369.666 72.5936 366.582 71.4727V62.6505Z" fill="white"/>
<path fill-rule="evenodd" clip-rule="evenodd" d="M400.709 61.9505V46.0563H396.785V39.6845C396.785 39.6845 398.466 39.4742 398.396 39.4742C401.55 38.774 403.582 37.5136 404.212 34.2228L405.053 28.7617H414.233V38.914H419.979V46.0563H414.022V62.0202C414.022 65.311 415.284 66.2918 417.736 66.2918C418.927 66.2918 419.768 66.0117 420.469 65.8014V73.2232C418.717 73.7136 415.985 74.2035 413.182 74.2035C404.142 74.2035 400.709 70.7727 400.709 61.9505Z" fill="white"/>
<path fill-rule="evenodd" clip-rule="evenodd" d="M424.814 30.442C424.814 26.6608 427.688 24 432.032 24C436.376 24 439.249 26.6608 439.249 30.442C439.249 34.2227 436.376 36.8835 432.032 36.8835C427.688 36.8835 424.814 34.2227 424.814 30.442ZM422.011 66.0813H423.904C424.885 66.0813 425.235 65.5914 425.235 63.9109V48.857C425.235 46.7563 424.885 46.0561 423.693 46.0561H422.011V38.9139H430.21C433.994 38.9139 437.147 38.4937 438.969 38.0742V63.9109C438.969 65.5914 439.32 66.0813 440.3 66.0813H442.052V73.2236H422.011V66.0813Z" fill="white"/>
<path fill-rule="evenodd" clip-rule="evenodd" d="M444.365 61.9505V46.0563H440.441V39.6845C440.441 39.6845 442.122 39.4742 442.053 39.4742C445.206 38.774 447.238 37.5136 447.869 34.2228L448.71 28.7617H457.889V38.914H463.635V46.0563H457.679V62.0202C457.679 65.311 458.94 66.2918 461.393 66.2918C462.584 66.2918 463.424 66.0117 464.125 65.8014V73.2232C462.374 73.7136 459.641 74.2035 456.838 74.2035C447.798 74.2035 444.365 70.7727 444.365 61.9505Z" fill="white"/>
<path fill-rule="evenodd" clip-rule="evenodd" d="M490.894 74.0637V68.6025C488.651 72.3832 484.938 74.2038 479.892 74.2038C472.325 74.2038 468.611 70.0024 468.611 60.62V48.2264C468.611 46.3361 468.12 46.056 467.209 46.056H465.387V38.9143H482.275V60.4097C482.275 64.471 483.536 65.7314 486.269 65.7314C489.423 65.7314 490.894 63.561 490.894 58.5897V48.2264C490.894 46.3361 490.404 46.056 489.492 46.056H486.9V38.9143H504.558V63.561C504.558 65.5216 504.908 66.0818 505.959 66.0818H508.061V73.2235H499.583C495.869 73.2235 492.716 73.6436 490.894 74.0637Z" fill="white"/>
<path fill-rule="evenodd" clip-rule="evenodd" d="M509.535 61.9505V46.0563H505.611V39.6845C505.611 39.6845 507.292 39.4742 507.223 39.4742C510.376 38.774 512.408 37.5136 513.039 34.2228L513.88 28.7617H523.059V38.914H528.805V46.0563H522.849V62.0202C522.849 65.311 524.11 66.2918 526.563 66.2918C527.754 66.2918 528.594 66.0117 529.295 65.8014V73.2232C527.544 73.7136 524.811 74.2035 522.008 74.2035C512.968 74.2035 509.535 70.7727 509.535 61.9505Z" fill="white"/>
<path fill-rule="evenodd" clip-rule="evenodd" d="M542.75 52.7078H552.35C552.21 47.0363 550.878 45.0059 547.865 45.0059C544.572 45.0059 543.03 47.1764 542.75 52.7078ZM542.96 58.5891C543.17 63.701 546.113 66.0812 550.878 66.0812C555.152 66.0812 557.395 63.841 558.656 61.1802L565.033 65.7314C562.51 70.5626 557.535 74.2038 548.145 74.2038C535.672 74.2038 528.946 66.782 528.946 55.9991C528.946 45.146 536.303 37.934 547.795 37.934C559.708 37.934 565.313 44.8659 565.313 57.1892V58.5891H542.96Z" fill="white"/>
<path fill-rule="evenodd" clip-rule="evenodd" d="M62.314 116.151V114.891C62.314 107.259 60.7026 104.808 56.7783 104.808C52.9244 104.808 51.2426 107.259 51.2426 114.891V116.151C51.2426 123.783 52.8541 126.164 56.7783 126.164C60.7026 126.164 62.314 123.713 62.314 116.151ZM37.5083 115.521C37.5083 104.668 45.2864 97.3858 56.9883 97.3858C68.4104 97.3858 76.0484 104.598 76.0484 115.521C76.0484 126.374 68.3406 133.656 56.6382 133.656C45.0765 133.656 37.5083 126.444 37.5083 115.521Z" fill="white"/>
<path fill-rule="evenodd" clip-rule="evenodd" d="M75.3486 98.366H79.5531V97.7361C79.5531 88.0033 83.2669 84.7823 92.3064 84.7823C95.3898 84.7823 98.1224 85.6226 99.1733 86.1828V92.9049C98.893 92.7648 97.4915 92.7648 97.071 92.7648C93.5678 92.9746 92.4466 93.7451 92.5867 98.366H98.1224V105.508H93.0072V123.363C93.0072 125.253 93.4974 125.533 94.4785 125.533H96.9309V132.675H75.9092V125.533H78.1516C79.0629 125.533 79.5531 125.253 79.5531 123.363V105.508H75.3486V98.366Z" fill="white"/>
<path fill-rule="evenodd" clip-rule="evenodd" d="M131.828 125.533H135.752C140.797 125.533 142.759 123.643 142.759 118.812C142.759 113.77 140.727 111.95 135.542 111.95H131.828V125.533ZM134.911 105.858C139.536 105.858 141.568 104.038 141.568 99.5567C141.568 95.145 139.816 93.325 135.472 93.325H131.828V105.858H134.911ZM136.243 132.675H113.259V125.533H115.711C116.973 125.533 117.393 124.833 117.393 123.013V95.7755C117.393 93.9549 116.973 93.325 115.711 93.325H113.259V86.1828H137.084C150.958 86.1828 156.003 89.4038 156.003 97.7361C156.003 103.408 152.64 106.838 146.053 108.169C153.551 109.359 157.475 113.14 157.475 119.582C157.475 128.684 151.659 132.675 136.243 132.675Z" fill="white"/>
<path fill-rule="evenodd" clip-rule="evenodd" d="M183.123 133.516V128.054C180.881 131.835 177.167 133.656 172.122 133.656C164.554 133.656 160.84 129.455 160.84 120.072V107.678C160.84 105.788 160.35 105.508 159.439 105.508H157.617V98.3662H174.504V119.862C174.504 123.923 175.765 125.183 178.499 125.183C181.652 125.183 183.123 123.013 183.123 118.042V107.678C183.123 105.788 182.633 105.508 181.722 105.508H179.129V98.3662H196.788V123.013C196.788 124.974 197.138 125.534 198.189 125.534H200.291V132.675H191.812C188.099 132.675 184.945 133.096 183.123 133.516Z" fill="white"/>
<path fill-rule="evenodd" clip-rule="evenodd" d="M75.0601 152.841H62.0698V156.064H66.8516C66.886 156.064 66.9111 156.065 66.9289 156.067C66.9483 156.125 66.9811 156.272 66.9811 156.592V178.162C66.9811 185.772 63.8852 189.019 56.6297 189.019C48.5913 189.019 45.8785 186.179 45.8785 177.762V156.592C45.8785 156.272 45.9113 156.125 45.9307 156.067C45.9485 156.065 45.9735 156.064 46.008 156.064H50.6185V152.841H37.2852V156.064H41.6677C41.7016 156.064 41.7267 156.065 41.745 156.067C41.7645 156.125 41.7967 156.272 41.7967 156.592V177.82C41.7967 188.226 46.028 192.47 56.4012 192.47C65.8824 192.47 70.4918 187.828 70.4918 178.276V156.592C70.4918 156.203 70.5469 156.1 70.5469 156.1C70.558 156.094 70.5952 156.08 70.7142 156.064H75.0601V152.841Z" fill="white"/>
<path fill-rule="evenodd" clip-rule="evenodd" d="M101.202 188.618C101.183 188.55 101.158 188.398 101.158 188.091V172.342C101.158 165.967 97.9832 162.599 91.9782 162.599C87.8692 162.599 84.5475 164.678 82.4263 168.515V162.676L81.7836 162.777C80.7488 162.94 78.2139 163.17 75.8169 163.17H73.719V166.392H78.2728C78.3012 166.392 78.3223 166.392 78.3329 166.393C78.3568 166.452 78.4018 166.625 78.4018 167.092V188.091C78.4018 188.398 78.3757 188.55 78.3574 188.618C78.3368 188.619 78.3095 188.62 78.2728 188.62H73.719V191.843H87.1091V188.62H82.5553C82.5231 188.62 82.4997 188.619 82.4825 188.617C82.4619 188.56 82.4263 188.412 82.4263 188.091V179.475C82.4263 171.285 85.9737 165.993 91.4644 165.993C95.4378 165.993 97.1331 167.943 97.1331 172.513V188.091C97.1331 188.398 97.1069 188.55 97.0886 188.618C97.0675 188.619 97.0402 188.62 97.0035 188.62H92.7355V191.843H105.84V188.62H101.287C101.25 188.62 101.223 188.619 101.202 188.618Z" fill="white"/>
<path fill-rule="evenodd" clip-rule="evenodd" d="M113.336 158.575C114.992 158.575 116.29 157.278 116.29 155.623C116.29 154.026 114.965 152.728 113.336 152.728C111.684 152.728 110.438 153.972 110.438 155.623C110.438 157.306 111.684 158.575 113.336 158.575Z" fill="white"/>
<path fill-rule="evenodd" clip-rule="evenodd" d="M115.542 188.62C115.522 188.554 115.491 188.403 115.491 188.091V162.676L114.848 162.777C113.813 162.94 111.26 163.169 108.824 163.169H106.726V166.392H110.709C111.146 166.392 111.409 166.392 111.409 168.119V188.091C111.409 188.403 111.379 188.554 111.359 188.62C111.352 188.62 111.345 188.62 111.337 188.62H106.726V191.843H120.117V188.62H115.563C115.555 188.62 115.542 188.62 115.542 188.62Z" fill="white"/>
<path fill-rule="evenodd" clip-rule="evenodd" d="M151.468 163.17H139.106V166.392H143.431C143.618 166.392 143.744 166.451 143.77 166.491C143.78 166.506 143.793 166.588 143.714 166.772L135.772 186.614C135.303 185.478 134.686 183.984 134.001 182.325C131.523 176.326 127.779 167.258 127.633 166.826L127.615 166.772C127.531 166.563 127.538 166.468 127.531 166.462C127.551 166.448 127.658 166.392 127.955 166.392H131.937V163.17H119.176V166.392H123.044C123.213 166.392 123.347 166.392 123.672 167.133L134.036 192.185H136.953L147.15 167.116C147.421 166.392 147.638 166.392 147.828 166.392H151.468V163.17Z" fill="white"/>
<path fill-rule="evenodd" clip-rule="evenodd" d="M164.446 165.764C169.799 165.764 173.218 169.411 173.47 175.324H154.496C155.199 169.41 158.968 165.764 164.446 165.764ZM164.503 162.599C156.174 162.599 150.356 168.741 150.356 177.535C150.356 186.328 156.197 192.47 164.561 192.47C171.29 192.47 176.084 188.829 177.383 182.729L177.49 182.223L174.264 181.29L174.128 181.855C172.954 186.723 169.755 189.19 164.617 189.19C158.697 189.19 154.665 184.892 154.447 178.433H177.509V176.507C177.509 168.188 172.282 162.599 164.503 162.599Z" fill="white"/>
<path fill-rule="evenodd" clip-rule="evenodd" d="M194.027 162.599C190.903 162.599 188.411 164.183 186.816 167.12V162.676L186.174 162.777C185.139 162.94 182.603 163.169 180.207 163.169H178.224V166.392H182.834C182.862 166.392 182.883 166.392 182.894 166.392C182.918 166.452 182.963 166.625 182.963 167.092V188.091C182.963 188.412 182.928 188.56 182.906 188.617C182.89 188.619 182.866 188.62 182.834 188.62H178.28V191.843H191.956V188.62H187.117C187.08 188.62 187.053 188.619 187.032 188.618C187.014 188.55 186.988 188.399 186.988 188.091V178.048C186.988 174.389 187.64 165.879 193.684 165.879C195.069 165.879 195.806 166.486 196.134 167.032C195.064 167.396 194.385 168.319 194.385 169.488C194.385 170.864 195.556 171.985 196.997 171.985C198.93 171.985 200.179 170.467 200.179 168.119C200.179 165.371 198.277 162.599 194.027 162.599Z" fill="white"/>
<path fill-rule="evenodd" clip-rule="evenodd" d="M213.66 175.505L213.437 175.463C208.934 174.613 206.175 173.922 206.175 170.573C206.175 167.517 208.615 165.764 212.872 165.764C215.367 165.764 217.359 166.25 219.111 167.289V173.012H222.565V165.362L222.31 165.198C219.587 163.449 216.481 162.599 212.815 162.599C206.538 162.599 202.322 165.941 202.322 170.915C202.322 177.03 208.26 178.245 212.185 179.048C216.644 179.999 219.568 180.876 219.568 184.268C219.568 188.384 215.803 189.248 212.643 189.248C209.998 189.248 207.518 188.692 205.775 187.716V181.829H202.322V189.597L202.582 189.76C205.287 191.457 209.048 192.47 212.643 192.47C219.256 192.47 223.364 189.174 223.364 183.869C223.364 178.242 218.703 176.524 213.66 175.505Z" fill="white"/>
<path fill-rule="evenodd" clip-rule="evenodd" d="M234.721 188.62C234.701 188.554 234.671 188.403 234.671 188.091V162.676L234.028 162.777C232.993 162.94 230.44 163.169 228.004 163.169H225.906V166.392H229.888C230.326 166.392 230.589 166.392 230.589 168.119V188.091C230.589 188.403 230.559 188.554 230.538 188.62C230.532 188.62 230.525 188.62 230.517 188.62H225.906V191.843H239.296V188.62H234.743C234.735 188.62 234.721 188.62 234.721 188.62Z" fill="white"/>
<path fill-rule="evenodd" clip-rule="evenodd" d="M232.516 158.575C234.172 158.575 235.47 157.278 235.47 155.623C235.47 154.026 234.145 152.728 232.516 152.728C230.864 152.728 229.618 153.972 229.618 155.623C229.618 157.306 230.864 158.575 232.516 158.575Z" fill="white"/>
<path fill-rule="evenodd" clip-rule="evenodd" d="M254.01 188.655C253.295 188.862 252.555 189.077 251.36 189.077C248.685 189.077 247.691 187.959 247.691 184.953V166.392H254.601V163.17H247.805V156.779H244.508L244.067 162.271C244.024 163.124 243.906 163.185 243.108 163.227L243.119 163.631L243.072 163.234C242.9 163.255 240.932 163.381 239.733 163.456L239.212 163.489V166.392H243.723V184.953C243.723 190.073 245.938 192.356 250.904 192.356C252.62 192.356 253.944 191.982 254.791 191.7L255.172 191.573V188.338L254.472 188.525C254.319 188.565 254.167 188.609 254.01 188.655Z" fill="white"/>
<path fill-rule="evenodd" clip-rule="evenodd" d="M277.073 166.392H280.77C281.02 166.392 281.138 166.448 281.138 166.448C281.138 166.448 281.157 166.534 281.059 166.758L273.092 185.262L264.269 166.772C264.185 166.564 264.191 166.468 264.185 166.461C264.205 166.449 264.311 166.392 264.609 166.392H268.077V163.17H256.286V166.392H259.755C259.864 166.392 259.896 166.403 259.896 166.403C259.931 166.422 260.043 166.535 260.338 167.159L271.077 189.758V189.808C267.936 197.48 266.116 198.834 263.467 198.834C262.616 198.834 261.941 198.651 261.472 198.308C262.72 197.575 263.129 196.335 262.955 195.382C262.736 194.186 261.727 193.413 260.383 193.413C258.605 193.413 257.314 194.895 257.314 196.936C257.314 199.87 259.902 202 263.467 202C269.064 202 271.105 197.904 273.971 191.222L284.435 167.106C284.687 166.392 284.82 166.392 285.111 166.392H288.522V163.17H277.073V166.392Z" fill="white"/>
<path fill-rule="evenodd" clip-rule="evenodd" d="M316.404 189.19C310.195 189.19 306.338 184.768 306.338 177.649V177.363C306.338 170.244 310.239 165.821 316.518 165.821C322.727 165.821 326.584 170.244 326.584 177.363V177.649C326.584 184.768 322.683 189.19 316.404 189.19ZM316.575 162.599C308.178 162.599 302.314 168.717 302.314 177.477C302.314 186.305 308.108 192.47 316.404 192.47C324.734 192.47 330.551 186.305 330.551 177.477C330.551 168.717 324.804 162.599 316.575 162.599Z" fill="white"/>
<path fill-rule="evenodd" clip-rule="evenodd" d="M341.816 151.871C337.062 151.871 334.75 154.405 334.75 159.617V163.17H330.524V166.392H334.75V188.091C334.75 188.399 334.724 188.55 334.705 188.618C334.685 188.619 334.657 188.62 334.621 188.62H330.581V191.842H343.686V188.62H338.847C338.81 188.62 338.783 188.619 338.762 188.618C338.743 188.55 338.718 188.399 338.718 188.091V166.392H344.77V163.17H338.718V159.837C338.689 157.862 338.992 156.622 339.672 155.933C340.198 155.399 341.006 155.15 342.216 155.15C343.448 155.15 344.464 155.415 345.414 155.984L346.256 156.489V152.951L345.963 152.794C345.324 152.45 343.934 151.871 341.816 151.871Z" fill="white"/>
<path fill-rule="evenodd" clip-rule="evenodd" d="M374.366 172.357H368.126V156.064H374.423C381.147 156.064 384.146 158.532 384.146 164.068C384.146 169.8 381.13 172.357 374.366 172.357ZM374.423 152.841H359.362V156.064H363.973C364.007 156.064 364.032 156.065 364.049 156.067C364.069 156.125 364.102 156.272 364.102 156.592V188.034C364.102 188.464 364.044 188.603 364.052 188.614C364.042 188.616 364.017 188.62 363.973 188.62H359.362V191.842H372.98V188.62H368.312C368.252 188.62 368.222 188.613 368.215 188.613C368.203 188.596 368.126 188.473 368.126 188.034V175.579H374.308C383.714 175.579 388.285 171.814 388.285 164.068C388.285 156.723 383.491 152.841 374.423 152.841Z" fill="white"/>
<path fill-rule="evenodd" clip-rule="evenodd" d="M407.773 162.599C404.65 162.599 402.158 164.183 400.563 167.12V162.676L399.921 162.777C398.886 162.94 396.351 163.169 393.954 163.169H391.97V166.392H396.58C396.61 166.391 396.63 166.392 396.641 166.392C396.665 166.452 396.71 166.625 396.71 167.092V188.091C396.71 188.412 396.674 188.56 396.654 188.617C396.637 188.619 396.613 188.62 396.58 188.62H392.027V191.843H405.702V188.62H400.863C400.827 188.62 400.799 188.619 400.779 188.618C400.76 188.55 400.734 188.399 400.734 188.091V178.048C400.734 174.389 401.387 165.879 407.431 165.879C408.815 165.879 409.552 166.486 409.881 167.032C408.81 167.396 408.132 168.318 408.132 169.488C408.132 170.864 409.303 171.985 410.743 171.985C412.676 171.985 413.926 170.467 413.926 168.119C413.926 165.371 412.024 162.599 407.773 162.599Z" fill="white"/>
<path fill-rule="evenodd" clip-rule="evenodd" d="M430.502 165.764C435.855 165.764 439.273 169.411 439.526 175.324H420.552C421.254 169.41 425.023 165.764 430.502 165.764ZM430.559 162.599C422.229 162.599 416.412 168.741 416.412 177.535C416.412 186.328 422.253 192.47 430.616 192.47C437.346 192.47 442.139 188.829 443.439 182.729L443.546 182.223L440.319 181.29L440.183 181.855C439.027 186.654 435.738 189.19 430.673 189.19C424.752 189.19 420.721 184.892 420.503 178.433H443.564V176.507C443.564 168.188 438.338 162.599 430.559 162.599Z" fill="white"/>
<path fill-rule="evenodd" clip-rule="evenodd" d="M459.991 188.655C459.276 188.862 458.537 189.077 457.342 189.077C454.667 189.077 453.672 187.959 453.672 184.953V166.392H460.582V163.17H453.787V156.779H450.49L450.048 162.271C450.006 163.124 449.888 163.185 449.089 163.227L449.1 163.631L449.053 163.234C448.881 163.255 446.914 163.381 445.714 163.456L445.193 163.489V166.392H449.705V184.953C449.705 190.073 451.919 192.356 456.885 192.356C458.601 192.356 459.926 191.982 460.772 191.7L461.153 191.573V188.338L460.454 188.525C460.301 188.565 460.147 188.609 459.991 188.655Z" fill="white"/>
<path fill-rule="evenodd" clip-rule="evenodd" d="M476.587 189.19C470.378 189.19 466.521 184.768 466.521 177.649V177.363C466.521 170.244 470.422 165.821 476.701 165.821C482.91 165.821 486.768 170.244 486.768 177.363V177.649C486.768 184.768 482.867 189.19 476.587 189.19ZM476.759 162.599C468.362 162.599 462.497 168.717 462.497 177.477C462.497 186.305 468.291 192.47 476.587 192.47C484.917 192.47 490.734 186.305 490.734 177.477C490.734 168.717 484.987 162.599 476.759 162.599Z" fill="white"/>
<path fill-rule="evenodd" clip-rule="evenodd" d="M507.939 162.599C504.816 162.599 502.324 164.183 500.729 167.12V162.676L500.087 162.777C499.052 162.94 496.517 163.169 494.12 163.169H492.136V166.392H496.746C496.775 166.391 496.797 166.392 496.807 166.392C496.831 166.452 496.876 166.625 496.876 167.092V188.091C496.876 188.412 496.84 188.56 496.82 188.617C496.803 188.619 496.779 188.62 496.746 188.62H492.193V191.843H505.868V188.62H501.029C500.993 188.62 500.965 188.619 500.945 188.618C500.926 188.55 500.9 188.399 500.9 188.091V178.048C500.9 174.389 501.553 165.879 507.597 165.879C508.981 165.879 509.718 166.486 510.047 167.032C508.976 167.396 508.298 168.318 508.298 169.488C508.298 170.864 509.469 171.985 510.909 171.985C512.842 171.985 514.092 170.467 514.092 168.119C514.092 165.371 512.19 162.599 507.939 162.599Z" fill="white"/>
<path fill-rule="evenodd" clip-rule="evenodd" d="M523.929 158.575C525.586 158.575 526.884 157.278 526.884 155.623C526.884 154.026 525.559 152.728 523.929 152.728C522.277 152.728 521.032 153.972 521.032 155.623C521.032 157.306 522.277 158.575 523.929 158.575Z" fill="white"/>
<path fill-rule="evenodd" clip-rule="evenodd" d="M526.135 188.62C526.115 188.554 526.084 188.403 526.084 188.091V162.676L525.442 162.777C524.407 162.94 521.854 163.169 519.418 163.169H517.32V166.392H521.303C521.739 166.392 522.002 166.392 522.002 168.119V188.091C522.002 188.403 521.972 188.554 521.952 188.62C521.952 188.62 521.939 188.62 521.931 188.62H517.32V191.843H530.71V188.62H526.156C526.149 188.62 526.135 188.62 526.135 188.62Z" fill="white"/>
<path fill-rule="evenodd" clip-rule="evenodd" d="M553.07 176.891V178.79C553.07 185.011 549.277 189.19 543.632 189.19C540.139 189.19 537.791 187.235 537.791 184.325C537.791 180.034 541.946 177.999 553.07 176.891ZM557.224 188.62C557.189 188.62 557.17 188.618 557.16 188.618C557.143 188.584 557.094 188.455 557.094 188.091V172.798C557.094 165.935 553.494 162.599 546.087 162.599C539.531 162.599 534.396 165.901 534.396 170.116C534.396 172.059 535.662 173.468 537.407 173.468C539.079 173.468 540.247 172.371 540.247 170.801C540.247 169.688 539.672 168.799 538.701 168.342C540.094 166.674 542.601 165.764 545.859 165.764C550.981 165.764 553.07 167.818 553.07 172.855V173.891C539.41 175.231 533.825 178.351 533.825 184.611C533.825 189.238 537.599 192.47 543.003 192.47C547.385 192.47 551.214 190.426 553.291 187.119C553.398 188.807 553.546 190.122 553.763 191.381L553.842 191.842H561.72V188.62H557.224Z" fill="white"/>
<path fill-rule="evenodd" clip-rule="evenodd" d="M201.414 122.103H210.313V126.794C211.644 127.144 213.186 127.284 215.008 127.284C217.811 127.284 219.563 126.304 219.563 124.203C219.563 121.823 216.97 121.262 212.625 120.352C207.23 119.092 200.924 117.061 200.924 109.499C200.924 102.007 206.599 97.3858 216.83 97.3858C222.716 97.3858 227.691 98.8565 230.354 100.116V108.659H221.875V104.388C220.894 104.038 219.142 103.758 217.671 103.758C214.938 103.758 213.326 104.878 213.326 106.698C213.326 109.149 216.059 109.429 220.053 110.34C225.379 111.6 231.965 113.63 231.965 121.403C231.965 129.105 226.36 133.656 215.919 133.656C209.612 133.656 204.497 132.045 201.414 130.925V122.103Z" fill="white"/>
<path fill-rule="evenodd" clip-rule="evenodd" d="M236.171 89.894C236.171 86.1128 239.044 83.4519 243.388 83.4519C247.733 83.4519 250.606 86.1128 250.606 89.894C250.606 93.6746 247.733 96.3354 243.388 96.3354C239.044 96.3354 236.171 93.6746 236.171 89.894ZM233.368 125.533H235.26C236.241 125.533 236.591 125.043 236.591 123.363V108.309C236.591 106.208 236.241 105.508 235.05 105.508H233.368V98.3658H241.566C245.35 98.3658 248.504 97.9457 250.326 97.5261V123.363C250.326 125.043 250.676 125.533 251.657 125.533H253.409V132.676H233.368V125.533Z" fill="white"/>
<path fill-rule="evenodd" clip-rule="evenodd" d="M271.698 103.408C273.8 99.3463 277.654 97.3857 282.979 97.3857C290.407 97.3857 294.261 101.727 294.261 111.109V123.363C294.261 125.253 294.751 125.533 295.663 125.533H297.485V132.675H277.724V125.533H279.196C280.106 125.533 280.597 125.253 280.597 123.363V111.32C280.597 107.328 279.476 105.858 276.673 105.858C273.52 105.858 271.908 108.029 271.908 113.42V123.363C271.908 125.253 272.399 125.533 273.31 125.533H274.781V132.675H255.02V125.533H256.842C257.754 125.533 258.244 125.253 258.244 123.363V108.029C258.244 106.068 257.894 105.508 256.842 105.508H255.02V98.366H263.079C266.793 98.366 269.946 97.9459 271.698 97.5263V103.408Z" fill="white"/>
<path fill-rule="evenodd" clip-rule="evenodd" d="M310.589 112.16H320.19C320.049 106.489 318.718 104.458 315.705 104.458C312.411 104.458 310.87 106.629 310.589 112.16ZM310.8 118.041C311.01 123.153 313.953 125.533 318.718 125.533C322.992 125.533 325.234 123.293 326.496 120.632L332.872 125.183C330.35 130.015 325.375 133.655 315.985 133.655C303.511 133.655 296.785 126.234 296.785 115.451C296.785 104.598 304.143 97.3857 315.634 97.3857C327.547 97.3857 333.153 104.318 333.153 116.642V118.041H310.8Z" fill="white"/>
<path fill-rule="evenodd" clip-rule="evenodd" d="M334.976 122.103H343.876V126.794C345.207 127.144 346.748 127.284 348.57 127.284C351.373 127.284 353.125 126.304 353.125 124.203C353.125 121.823 350.532 121.262 346.188 120.352C340.792 119.092 334.486 117.061 334.486 109.499C334.486 102.007 340.162 97.3858 350.392 97.3858C356.279 97.3858 361.254 98.8565 363.916 100.116V108.659H355.438V104.388C354.457 104.038 352.705 103.758 351.233 103.758C348.501 103.758 346.889 104.878 346.889 106.698C346.889 109.149 349.621 109.429 353.616 110.34C358.941 111.6 365.528 113.63 365.528 121.403C365.528 129.105 359.922 133.656 349.482 133.656C343.175 133.656 338.06 132.045 334.976 130.925V122.103Z" fill="white"/>
<path fill-rule="evenodd" clip-rule="evenodd" d="M366.86 122.103H375.76V126.794C377.091 127.144 378.633 127.284 380.455 127.284C383.257 127.284 385.009 126.304 385.009 124.203C385.009 121.823 382.416 121.262 378.073 120.352C372.676 119.092 366.37 117.061 366.37 109.499C366.37 102.007 372.046 97.3858 382.276 97.3858C388.163 97.3858 393.138 98.8565 395.8 100.116V108.659H387.322V104.388C386.341 104.038 384.589 103.758 383.117 103.758C380.385 103.758 378.773 104.878 378.773 106.698C378.773 109.149 381.505 109.429 385.5 110.34C390.825 111.6 397.412 113.63 397.412 121.403C397.412 129.105 391.806 133.656 381.366 133.656C375.059 133.656 369.944 132.045 366.86 130.925V122.103Z" fill="white"/>
<path fill-rule="evenodd" clip-rule="evenodd" d="M412.688 130.155V118.462H423.62V124.903C425.302 125.534 427.824 125.954 430.347 125.954C434.131 125.954 436.653 124.273 436.653 121.402C436.653 117.411 433.43 116.921 426.493 115.241C418.224 113.14 412.338 109.779 412.338 100.957C412.338 91.2943 419.416 85.2027 432.379 85.2027C439.597 85.2027 444.992 86.6729 449.057 88.4231V99.6964H438.195V94.0249C436.793 93.535 434.692 93.1846 432.519 93.1846C428.385 93.1846 426.073 94.7949 426.073 97.666C426.073 101.167 429.226 101.657 435.812 103.338C443.591 105.298 450.669 108.309 450.669 117.762C450.669 127.424 444.572 133.656 430.558 133.656C422.709 133.656 416.823 131.975 412.688 130.155Z" fill="white"/>
<path fill-rule="evenodd" clip-rule="evenodd" d="M478.839 105.718C477.788 104.808 476.176 104.388 474.004 104.388C469.169 104.388 466.436 107.328 466.436 114.191V115.801C466.436 122.453 469.099 125.324 473.724 125.324C477.437 125.324 479.68 123.503 481.081 120.142L488.088 124.133C485.846 129.665 481.221 133.656 471.971 133.656C459.779 133.656 452.561 127.004 452.561 115.381C452.561 104.178 459.849 97.3858 471.901 97.3858C482.413 97.3858 488.159 101.657 488.159 109.219C488.159 114.051 485.426 117.481 480.731 117.481C476.527 117.481 474.074 114.821 474.074 111.599C474.074 108.589 475.756 106.418 478.839 105.718Z" fill="white"/>
<path fill-rule="evenodd" clip-rule="evenodd" d="M492.294 89.894C492.294 86.1128 495.167 83.4519 499.511 83.4519C503.856 83.4519 506.729 86.1128 506.729 89.894C506.729 93.6746 503.856 96.3354 499.511 96.3354C495.167 96.3354 492.294 93.6746 492.294 89.894ZM489.491 125.533H491.383C492.364 125.533 492.714 125.043 492.714 123.363V108.309C492.714 106.208 492.364 105.508 491.173 105.508H489.491V98.3658H497.69C501.474 98.3658 504.627 97.9457 506.449 97.5261V123.363C506.449 125.043 506.799 125.533 507.78 125.533H509.531V132.676H489.491V125.533Z" fill="white"/>
<path fill-rule="evenodd" clip-rule="evenodd" d="M523.897 112.16H533.497C533.357 106.489 532.025 104.458 529.012 104.458C525.719 104.458 524.177 106.629 523.897 112.16ZM524.107 118.041C524.317 123.153 527.261 125.533 532.025 125.533C536.299 125.533 538.542 123.293 539.803 120.632L546.18 125.183C543.657 130.015 538.682 133.655 529.292 133.655C516.819 133.655 510.093 126.234 510.093 115.451C510.093 104.598 517.45 97.3857 528.942 97.3857C540.855 97.3857 546.46 104.318 546.46 116.642V118.041H524.107Z" fill="white"/>
<path fill-rule="evenodd" clip-rule="evenodd" d="M564.821 103.408C566.923 99.3463 570.777 97.3857 576.103 97.3857C583.531 97.3857 587.385 101.727 587.385 111.109V123.363C587.385 125.253 587.875 125.533 588.786 125.533H590.607V132.675H570.847V125.533H572.318C573.23 125.533 573.72 125.253 573.72 123.363V111.32C573.72 107.328 572.599 105.858 569.796 105.858C566.643 105.858 565.031 108.029 565.031 113.42V123.363C565.031 125.253 565.521 125.533 566.433 125.533H567.904V132.675H548.144V125.533H549.966C550.876 125.533 551.367 125.253 551.367 123.363V108.029C551.367 106.068 551.017 105.508 549.966 105.508H548.144V98.366H556.202C559.916 98.366 563.069 97.9459 564.821 97.5263V103.408Z" fill="white"/>
<path fill-rule="evenodd" clip-rule="evenodd" d="M615.484 105.718C614.433 104.808 612.821 104.388 610.649 104.388C605.814 104.388 603.081 107.328 603.081 114.191V115.801C603.081 122.453 605.744 125.324 610.369 125.324C614.083 125.324 616.325 123.503 617.726 120.142L624.734 124.133C622.492 129.665 617.866 133.656 608.617 133.656C596.424 133.656 589.207 127.004 589.207 115.381C589.207 104.178 596.495 97.3858 608.547 97.3858C619.058 97.3858 624.804 101.657 624.804 109.219C624.804 114.051 622.071 117.481 617.376 117.481C613.172 117.481 610.719 114.821 610.719 111.599C610.719 108.589 612.401 106.418 615.484 105.718Z" fill="white"/>
<path fill-rule="evenodd" clip-rule="evenodd" d="M639.941 112.16H649.541C649.401 106.489 648.069 104.458 645.056 104.458C641.763 104.458 640.221 106.629 639.941 112.16ZM640.151 118.041C640.361 123.153 643.305 125.533 648.069 125.533C652.344 125.533 654.586 123.293 655.847 120.632L662.224 125.183C659.701 130.015 654.726 133.655 645.337 133.655C632.863 133.655 626.137 126.234 626.137 115.451C626.137 104.598 633.495 97.3857 644.986 97.3857C656.899 97.3857 662.504 104.318 662.504 116.642V118.041H640.151Z" fill="white"/>
</g>
<defs>
<filter id="filter0_d_3606_7038" x="0.285156" y="0" width="699.219" height="252" filterUnits="userSpaceOnUse" color-interpolation-filters="sRGB">
<feFlood flood-opacity="0" result="BackgroundImageFix"/>
<feColorMatrix in="SourceAlpha" type="matrix" values="0 0 0 0 0 0 0 0 0 0 0 0 0 0 0 0 0 0 127 0" result="hardAlpha"/>
<feOffset dy="13"/>
<feGaussianBlur stdDeviation="18.5"/>
<feColorMatrix type="matrix" values="0 0 0 0 0 0 0 0 0 0 0 0 0 0 0 0 0 0 0.21 0"/>
<feBlend mode="normal" in2="BackgroundImageFix" result="effect1_dropShadow_3606_7038"/>
<feBlend mode="normal" in="SourceGraphic" in2="effect1_dropShadow_3606_7038" result="shape"/>
</filter>
</defs>
</svg>
